<svg role="img" viewBox="0 0 24 24" xmlns="http://www.w3.org/2000/svg"><title>TypeScript</title><path fill="#3178C6" d="M1.125 0C.502 0 0 .502 0 1.125v21.75C0 23.498.502 24 1.125 24h21.75c.623 0 1.125-.502 1.125-1.125V1.125C24 .502 23.498 0 22.875 0H1.125zm17.363 9.75c.612 0 1.154.037 1.627.111a6.38 6.38 0 0 1 1.306.34v2.458a3.95 3.95 0 0 0-.643-.361 5.093 5.093 0 0 0-.717-.26 5.453 5.453 0 0 0-.814-.162 6.605 6.605 0 0 0-.948-.063c-.476 0-.877.067-1.201.2-.325.133-.585.318-.78.555a1.8 1.8 0 0 0-.293.784c-.065.3-.065.592 0 .875.065.283.187.534.366.753.18.219.423.407.73.564.307.157.68.297 1.12.42.438.123.908.261 1.41.415.502.154.982.344 1.438.57.457.226.84.509 1.15.85.31.34.542.748.696 1.222.154.475.231 1.02.231 1.637 0 .866-.162 1.624-.487 2.274a4.487 4.487 0 0 1-1.385 1.637c-.6.41-1.32.716-2.16.917a10.405 10.405 0 0 1-2.774.301c-.69 0-1.383-.064-2.079-.193a9.66 9.66 0 0 1-1.921-.555v-2.61c.642.348 1.339.625 2.09.83.752.206 1.474.309 2.167.309.497 0 .93-.07 1.3-.21.37-.14.67-.336.901-.587.23-.25.395-.544.494-.882.1-.338.1-.693 0-1.065a2.02 2.02 0 0 0-.342-.764 2.5 2.5 0 0 0-.756-.593c-.322-.17-.714-.325-1.176-.464a13.31 13.31 0 0 1-1.463-.464 7.02 7.02 0 0 1-1.423-.623 3.94 3.94 0 0 1-1.122-.88 3.58 3.58 0 0 1-.68-1.246c-.155-.487-.233-1.042-.233-1.666 0-.82.16-1.545.48-2.176a4.42 4.42 0 0 1 1.34-1.583c.573-.399 1.268-.701 2.086-.906a9.92 9.92 0 0 1 2.571-.307zM10.95 10v2.42h-3.3v11.58H4.62V12.42H1.32V10h9.63z"/></svg>
